<?xml version="1.0" standalone="no"?>
<!DOCTYPE svg PUBLIC "-//W3C//DTD SVG 20010904//EN"
 "http://www.w3.org/TR/2001/REC-SVG-20010904/DTD/svg10.dtd">
<svg version="1.0" xmlns="http://www.w3.org/2000/svg"
 width="512.000000pt" height="512.000000pt" viewBox="0 0 512.000000 512.000000"
 preserveAspectRatio="xMidYMid meet">

<g transform="translate(0.000000,512.000000) scale(0.100000,-0.100000)"
fill="#000000" stroke="none">
<path d="M0 4670 l0 -450 150 0 150 0 0 300 0 300 300 0 300 0 0 150 0 150
-450 0 -450 0 0 -450z"/>
<path d="M1200 4820 l0 -300 -300 0 -300 0 0 -150 0 -150 455 0 455 0 0 450 0
450 -155 0 -155 0 0 -300z"/>
<path d="M1810 4970 l0 -150 225 0 225 0 0 150 0 150 -225 0 -225 0 0 -150z"/>
<path d="M2560 4970 l0 -150 375 0 375 0 0 150 0 150 -375 0 -375 0 0 -150z"/>
<path d="M3612 4368 l3 -753 753 -3 752 -2 0 755 0 755 -755 0 -755 0 2 -752z
m1208 2 l0 -450 -450 0 -450 0 0 450 0 450 450 0 450 0 0 -450z"/>
<path d="M4220 4370 l0 -150 150 0 150 0 0 150 0 150 -150 0 -150 0 0 -150z"/>
<path d="M1810 4065 l0 -456 148 3 147 3 3 303 2 302 225 0 225 0 0 150 0 150
-375 0 -375 0 0 -455z"/>
<path d="M2860 4370 l0 -150 225 0 225 0 0 150 0 150 -225 0 -225 0 0 -150z"/>
<path d="M0 3765 l0 -155 450 0 450 0 0 155 0 155 -450 0 -450 0 0 -155z"/>
<path d="M1205 3908 c-3 -7 -4 -144 -3 -303 l3 -290 150 0 150 0 0 300 0 300
-148 3 c-113 2 -149 0 -152 -10z"/>
<path d="M2560 3765 l0 -155 225 0 225 0 0 -600 0 -600 150 0 150 0 0 755 0
755 -375 0 -375 0 0 -155z"/>
<path d="M0 3160 l0 -150 300 0 300 0 0 -300 0 -300 150 0 150 0 0 450 0 450
-450 0 -450 0 0 -150z"/>
<path d="M1810 3160 l0 -150 375 0 375 0 0 150 0 150 -375 0 -375 0 0 -150z"/>
<path d="M3612 3163 l3 -148 150 0 150 0 3 148 3 147 -156 0 -156 0 3 -147z"/>
<path d="M4220 2860 l0 -450 150 0 150 0 0 300 0 300 300 0 300 0 0 150 0 150
-450 0 -450 0 0 -450z"/>
<path d="M1200 2710 l0 -300 680 0 680 0 0 150 0 150 -525 0 -525 0 0 150 0
150 -155 0 -155 0 0 -300z"/>
<path d="M0 2260 l0 -450 300 0 300 0 0 150 0 150 -150 0 -150 0 0 300 0 300
-150 0 -150 0 0 -450z"/>
<path d="M3610 2560 l0 -150 155 0 155 0 0 150 0 150 -155 0 -155 0 0 -150z"/>
<path d="M4820 2410 l0 -300 -150 0 -150 0 0 -150 0 -150 300 0 300 0 0 450 0
450 -150 0 -150 0 0 -300z"/>
<path d="M900 1960 l0 -150 150 0 150 0 0 150 0 150 -150 0 -150 0 0 -150z"/>
<path d="M1510 1960 l0 -149 148 -3 147 -3 3 -302 2 -303 375 0 375 0 0 155 0
155 -225 0 -225 0 0 300 0 300 -300 0 -300 0 0 -150z"/>
<path d="M2560 1960 l0 -150 375 0 375 0 0 150 0 150 -375 0 -375 0 0 -150z"/>
<path d="M3617 2103 c-4 -3 -7 -71 -7 -150 l0 -143 305 0 305 0 0 150 0 150
-298 0 c-164 0 -302 -3 -305 -7z"/>
<path d="M0 755 l0 -755 755 0 755 0 -2 752 -3 753 -752 3 -753 2 0 -755z
m1200 -5 l0 -450 -450 0 -450 0 0 450 0 450 450 0 450 0 0 -450z"/>
<path d="M600 750 l0 -150 150 0 150 0 0 150 0 150 -150 0 -150 0 0 -150z"/>
<path d="M3017 1503 c-4 -3 -7 -141 -7 -305 l0 -298 -225 0 -225 0 0 -150 0
-150 375 0 375 0 0 455 0 455 -143 0 c-79 0 -147 -3 -150 -7z"/>
<path d="M3617 1503 c-4 -3 -7 -343 -7 -755 l0 -748 755 0 755 0 0 755 0 755
-748 0 c-412 0 -752 -3 -755 -7z m1203 -753 l0 -450 -450 0 -450 0 0 450 0
450 450 0 450 0 0 -450z"/>
<path d="M4220 750 l0 -150 150 0 150 0 0 150 0 150 -150 0 -150 0 0 -150z"/>
<path d="M1810 750 l0 -150 225 0 225 0 0 150 0 150 -225 0 -225 0 0 -150z"/>
<path d="M1810 150 l0 -150 375 0 375 0 0 150 0 150 -375 0 -375 0 0 -150z"/>
<path d="M2860 150 l0 -150 225 0 225 0 0 150 0 150 -225 0 -225 0 0 -150z"/>
</g>
</svg>
