<?xml version="1.0" standalone="no"?>
<!DOCTYPE svg PUBLIC "-//W3C//DTD SVG 20010904//EN"
 "http://www.w3.org/TR/2001/REC-SVG-20010904/DTD/svg10.dtd">
<svg version="1.0" xmlns="http://www.w3.org/2000/svg"
 width="331.000000pt" height="324.000000pt" viewBox="0 0 331.000000 324.000000"
 preserveAspectRatio="xMidYMid meet">

<g transform="translate(0.000000,324.000000) scale(0.100000,-0.100000)"
fill="#000000" stroke="none">
<path fill="#772f2d" d="M1538 3043 c-34 -3 -48 -8 -48 -19 0 -7 5 -14 10 -14 6 0 10 -18 10
-39 0 -22 -4 -43 -10 -46 -25 -16 -5 -25 55 -25 63 0 65 1 65 25 0 16 -6 25
-15 25 -8 0 -15 -4 -15 -10 0 -5 -11 -10 -25 -10 -16 0 -25 6 -25 15 0 8 9 15
20 15 11 0 20 4 20 9 0 5 -9 11 -20 14 -36 9 -23 30 15 24 32 -5 35 -4 35 19
0 13 -5 23 -12 22 -7 -1 -34 -3 -60 -5z"/>
<path fill="#772f2d" d="M1368 3022 c-12 -5 -15 -11 -8 -22 5 -9 5 -19 -2 -27 -16 -20 -30
-15 -26 10 2 18 -2 23 -25 25 -29 4 -50 -24 -28 -37 16 -10 33 -74 21 -81 -19
-12 7 -31 33 -24 29 7 34 23 15 42 -9 9 -9 15 -1 23 16 16 33 2 33 -27 0 -24
13 -30 44 -18 23 9 20 21 -16 54 l-33 30 23 20 c35 29 15 50 -30 32z"/>
<path fill="#772f2d" d="M1808 3018 c-2 -6 5 -29 16 -50 20 -37 20 -40 4 -52 -24 -18 -22 -32
5 -40 42 -11 50 -8 43 20 -5 20 -1 33 15 50 12 13 29 24 36 24 23 0 10 35 -14
38 -16 2 -22 -3 -25 -19 -2 -12 -9 -25 -17 -27 -11 -4 -13 2 -8 26 5 25 3 31
-16 36 -31 8 -35 8 -39 -6z"/>
<path fill="#772f2d" d="M1158 2966 c-27 -9 -39 -36 -18 -36 14 0 32 -48 32 -83 -1 -26 2 -28
26 -22 41 10 46 21 21 43 -14 14 -23 35 -25 63 -1 22 -4 42 -6 43 -2 1 -15 -2
-30 -8z"/>
<path fill="#772f2d" d="M2018 2962 c-10 -2 -24 -24 -33 -53 -14 -41 -15 -52 -4 -65 18 -21
58 -36 79 -29 25 8 54 88 41 113 -12 22 -56 40 -83 34z m48 -45 c9 -24 -14
-67 -36 -67 -23 0 -25 17 -8 55 12 27 35 33 44 12z"/>
<path fill="#772f2d" d="M977 2884 c-30 -16 -35 -32 -12 -41 19 -7 45 -55 45 -83 0 -25 0 -25
60 5 54 27 57 32 36 60 -13 18 -14 18 -25 -3 -6 -12 -18 -22 -26 -22 -18 0
-47 54 -39 73 8 22 -8 27 -39 11z"/>
<path fill="#772f2d" d="M2179 2893 c-1 -5 -1 -12 0 -17 1 -5 -8 -29 -21 -53 l-23 -44 28 -25
c43 -37 73 -32 97 16 11 22 27 40 35 40 24 0 17 26 -10 38 -22 10 -27 9 -31
-6 -19 -60 -45 -85 -66 -64 -9 9 -3 22 21 52 31 39 32 42 15 55 -21 16 -43 19
-45 8z"/>
<path fill="#fdbd59" d="M1480 2773 c-123 -19 -270 -69 -377 -129 -92 -51 -227 -154 -216
-165 15 -15 1498 -7 1498 8 0 17 -129 114 -215 161 -173 94 -330 133 -533 131
-73 -1 -143 -3 -157 -6z"/>
<path fill="#772f2d" d="M2369 2775 c-1 -3 -2 -8 -3 -12 -3 -18 -48 -73 -56 -68 -4 3 -13 -1
-19 -9 -9 -10 -6 -17 11 -28 31 -21 43 -21 43 -1 0 9 5 18 12 20 8 3 13 -11
15 -39 2 -30 7 -43 18 -43 9 0 15 9 15 23 0 14 9 27 25 35 41 21 38 57 -9 95
-39 31 -50 37 -52 27z m46 -66 c10 -15 -1 -23 -20 -15 -9 3 -13 10 -10 16 8
13 22 13 30 -1z"/>
<path fill="#772f2d" d="M732 2699 c-40 -38 -47 -59 -18 -59 7 0 25 -13 41 -30 16 -16 25 -30
20 -30 -5 0 -4 -5 3 -12 8 -8 22 -1 56 30 43 39 43 41 25 58 -18 16 -19 15
-28 -10 -14 -35 -46 -36 -37 -1 5 19 3 23 -8 19 -8 -3 -20 -3 -26 1 -16 10 7
35 31 35 22 0 24 11 7 28 -17 17 -18 16 -66 -29z"/>
<path fill="#772f2d" d="M616 2581 c-17 -19 -17 -20 6 -32 23 -12 47 -38 48 -51 0 -13 -53 12
-66 30 -12 16 -14 15 -34 -6 -13 -13 -19 -30 -16 -39 4 -9 9 -13 12 -10 4 3
31 -3 62 -15 l56 -21 17 22 c18 22 17 23 -16 72 -19 27 -35 53 -35 59 0 16
-15 12 -34 -9z"/>
<path fill="#772f2d" d="M2558 2513 c-28 -19 -38 -33 -38 -52 1 -31 32 -71 55 -71 26 0 83 38
90 60 6 19 -22 80 -36 80 -4 0 -13 2 -21 4 -7 3 -30 -7 -50 -21z m67 -38 c0
-11 -12 -26 -27 -34 -23 -13 -30 -13 -40 -3 -11 11 -8 18 17 38 34 27 50 26
50 -1z"/>
<path fill="#da6e30" d="M833 2428 c-90 -95 -222 -311 -209 -344 5 -12 162 -14 1019 -14 558
0 1016 3 1019 6 19 18 -111 237 -196 332 l-48 52 -777 0 -777 0 -31 -32z m857
-178 c0 -5 -15 -11 -32 -11 -18 -1 -25 -3 -15 -6 21 -5 23 -23 2 -23 -8 0 -15
-4 -15 -10 0 -5 14 -10 30 -10 17 0 30 -4 30 -10 0 -5 -19 -10 -42 -10 l-43 0
0 45 0 45 43 0 c23 0 42 -4 42 -10z m110 0 c0 -5 -12 -10 -27 -10 l-28 -1 28
-17 c15 -9 27 -25 27 -34 0 -14 -8 -18 -40 -18 -48 0 -54 17 -7 22 l32 3 -32
15 c-48 22 -44 50 7 50 22 0 40 -4 40 -10z m130 -5 c0 -9 -6 -12 -16 -8 -14 5
-16 0 -12 -30 3 -32 1 -37 -17 -37 -18 0 -20 5 -17 36 4 33 3 36 -17 29 -15
-5 -21 -2 -21 9 0 12 11 16 50 16 37 0 50 -4 50 -15z m170 -3 c0 -10 -14 -23
-32 -32 l-33 -15 33 -3 c46 -5 40 -22 -8 -22 -51 0 -55 28 -7 50 l32 15 -33 3
c-42 4 -31 22 14 22 26 0 34 -4 34 -18z m115 -27 c0 -39 -1 -40 -37 -43 l-38
-3 0 46 0 46 38 -3 c36 -3 37 -4 37 -43z m125 27 c0 -10 -14 -23 -32 -32 l-33
-15 33 -3 c46 -5 40 -22 -8 -22 -32 0 -40 4 -40 18 0 9 12 25 28 34 l27 17
-27 1 c-16 0 -28 5 -28 10 0 6 18 10 40 10 31 0 40 -4 40 -18z m116 -24 c-1
-41 -2 -43 -35 -46 -18 -2 -38 1 -44 7 -8 8 0 11 26 11 20 0 37 5 37 10 0 6
-7 10 -15 10 -18 0 -20 16 -2 23 6 3 -3 6 -20 6 -50 1 -40 21 10 21 l43 0 0
-42z m-469 -44 c-3 -3 -12 -4 -19 -1 -8 3 -5 6 6 6 11 1 17 -2 13 -5z"/>
<path fill="#da6e30" d="M2160 2215 c0 -18 5 -25 20 -25 15 0 20 7 20 25 0 18 -5 25 -20 25
-15 0 -20 -7 -20 -25z"/>
<path fill="#772f2d" d="M487 2391 c-12 -20 -14 -32 -6 -36 5 -4 13 -4 16 -1 8 8 84 -34 78
-44 -3 -4 1 -10 7 -13 7 -2 21 9 31 25 22 36 21 38 -3 38 -28 0 -76 26 -83 45
-9 22 -21 18 -40 -14z"/>
<path fill="#772f2d" d="M2703 2377 c-4 -7 -27 -28 -50 -46 -37 -30 -41 -36 -31 -57 8 -18 19
-24 42 -24 l30 0 -21 -21 c-18 -18 -20 -26 -10 -46 9 -20 15 -23 40 -17 16 3
46 7 68 8 44 2 45 3 35 34 -7 21 -9 21 -29 7 -12 -8 -32 -15 -46 -15 -23 0
-24 1 -6 20 10 11 26 20 35 20 27 0 30 10 14 41 -14 29 -29 37 -36 21 -1 -5
-18 -12 -37 -15 -34 -7 -34 -7 -16 13 10 11 26 20 36 20 25 0 31 14 18 44 -13
29 -24 33 -36 13z"/>
<path fill="#772f2d" d="M432 2268 c-12 -15 -42 -86 -42 -100 0 -5 8 -8 18 -7 30 5 82 -12 91
-29 12 -21 27 -8 37 31 6 26 5 28 -20 21 -16 -4 -26 -2 -26 4 0 6 15 14 34 17
22 5 36 14 39 27 5 16 1 19 -22 16 -16 -1 -35 5 -45 15 -20 20 -49 22 -64 5z
m41 -34 c9 -10 -4 -34 -19 -34 -8 0 -14 9 -14 20 0 19 19 27 33 14z"/>
<path fill="#772f2d" d="M2808 2093 c-11 -10 -33 -16 -63 -16 -35 0 -45 -4 -40 -14 3 -8 5
-21 5 -29 0 -15 26 -20 32 -5 2 4 14 12 28 16 23 7 23 5 -11 -31 -37 -40 -43
-79 -11 -70 9 2 32 8 51 11 34 7 34 7 17 -16 -21 -30 -20 -51 2 -79 35 -43
112 -15 112 41 0 10 -9 28 -20 39 -11 11 -20 23 -20 28 -1 4 -9 18 -20 30 -18
22 -21 22 -36 8 -8 -9 -23 -16 -32 -16 -12 1 -8 9 16 31 28 25 32 35 27 59 -8
34 -14 37 -37 13z"/>
<path fill="#772f2d" d="M378 2076 c-14 -10 -37 -76 -38 -110 0 -4 12 -5 26 -2 27 7 27 7 -5
-19 -36 -31 -39 -57 -11 -85 27 -27 75 -26 94 2 21 30 20 47 -6 75 -12 13 -17
23 -11 23 6 0 16 -7 23 -15 20 -24 26 -18 37 32 13 57 1 91 -36 99 -14 3 -33
8 -41 10 -8 2 -23 -3 -32 -10z m70 -41 c24 -7 26 -13 14 -32 -10 -16 -82 2
-82 21 0 18 11 27 29 22 9 -2 26 -7 39 -11z"/>
<path fill="#7d322c" d="M591 1988 c-33 -100 -51 -207 -59 -340 l-7 -125 63 23 c34 13 64 24
67 24 2 0 7 16 11 35 6 33 8 35 46 35 37 0 40 -2 36 -24 -5 -23 -2 -24 26 -20
17 3 40 8 51 11 11 4 319 9 685 12 l665 6 -3 140 c-1 78 -7 144 -13 150 -6 6
-140 10 -377 10 -313 0 -372 -3 -402 -16 -19 -9 -71 -49 -115 -90 -124 -114
-140 -122 -34 -17 52 53 111 104 130 114 45 23 328 37 629 31 185 -4 224 -7
281 -26 81 -26 159 -76 259 -168 89 -81 165 -143 174 -143 3 0 6 9 6 20 0 14
9 21 35 26 20 3 39 4 42 1 3 -4 -1 -26 -9 -50 -14 -43 -14 -44 14 -69 16 -14
30 -22 33 -18 3 4 -1 10 -9 13 -12 5 -8 27 21 122 19 64 32 119 29 122 -2 3
-19 -20 -36 -51 -30 -53 -34 -56 -71 -56 -35 0 -39 3 -39 25 0 16 9 29 28 40
l27 15 -27 -6 c-27 -6 -28 -5 -28 37 0 56 -14 140 -35 212 l-16 57 -1029 0
-1028 0 -21 -62z m1563 -162 c3 -30 3 -81 0 -115 l-7 -61 -134 0 -135 0 -27
29 c-65 70 -236 68 -293 -4 l-19 -25 -206 0 -205 0 34 33 c19 17 73 69 121
115 l87 82 388 0 389 0 7 -54z m-465 -192 c10 -9 -105 -3 -118 5 -9 6 9 7 50
4 35 -3 66 -7 68 -9z m-161 -1 c-10 -2 -28 -2 -40 0 -13 2 -5 4 17 4 22 1 32
-1 23 -4z m575 0 c-13 -2 -33 -2 -45 0 -13 2 -3 4 22 4 25 0 35 -2 23 -4z"/>
<path fill="#7d322c" d="M2217 1903 c-20 -19 -5 -33 37 -33 68 0 90 -13 109 -62 31 -82 59
-200 50 -209 -5 -5 -43 -6 -85 -3 l-76 7 1 46 c2 37 -1 46 -17 49 -18 4 -18 0
-12 -54 4 -32 9 -60 11 -62 9 -9 317 -17 348 -9 32 8 57 31 57 52 0 7 -37 45
-82 85 l-83 73 69 -70 c38 -39 66 -76 62 -81 -12 -19 -124 -46 -142 -34 -8 6
-64 173 -79 235 -7 29 -16 38 -59 58 -41 19 -97 25 -109 12z"/>
<path fill="#7d322c" d="M2790 1760 c-8 -5 -10 -10 -5 -10 6 0 17 5 25 10 8 5 11 10 5 10 -5
0 -17 -5 -25 -10z"/>
<path fill="#7d322c" d="M1828 1593 c7 -3 16 -2 19 1 4 3 -2 6 -13 5 -11 0 -14 -3 -6 -6z"/>
<path fill="#7d322c" d="M1742 1573 c-24 -8 -41 -17 -39 -19 2 -2 28 5 58 15 30 11 47 20 39
19 -8 0 -34 -6 -58 -15z"/>
<path fill="#7d322c" d="M1543 1553 c9 -2 23 -2 30 0 6 3 -1 5 -18 5 -16 0 -22 -2 -12 -5z"/>
<path fill="#7d322c" d="M1650 1540 c-18 -12 -2 -12 25 0 13 6 15 9 5 9 -8 0 -22 -4 -30 -9z"/>
<path fill="#7d322c" d="M668 1513 c17 -2 47 -2 65 0 17 2 3 4 -33 4 -36 0 -50 -2 -32 -4z"/>
<path fill="#7d322c" d="M446 1485 c-11 -8 -15 -15 -9 -15 6 0 16 7 23 15 16 19 11 19 -14 0z"/>
<path fill="#7d322c" d="M430 1457 c-27 -13 -59 -83 -59 -130 -1 -40 34 -103 69 -123 39 -23
42 -35 26 -89 l-14 -45 61 -2 c34 -1 353 -2 709 -2 604 -1 648 0 648 16 0 11
13 21 37 27 46 13 54 4 39 -51 -9 -35 -8 -42 9 -54 17 -13 70 -11 85 3 9 8
-45 93 -60 93 -12 1 -11 4 4 15 24 18 30 14 64 -46 l29 -49 25 28 c52 54 60
153 18 204 l-20 23 -30 -32 c-26 -29 -28 -36 -18 -57 8 -19 20 -26 46 -28 51
-4 54 -28 4 -28 -55 0 -71 8 -65 30 6 24 -38 70 -68 70 -15 0 -19 5 -15 15 4
12 -4 15 -42 16 -55 1 -47 5 20 12 39 4 47 1 51 -14 3 -11 13 -19 23 -19 17 0
74 47 74 61 0 9 -64 39 -84 39 -10 0 -16 -9 -16 -25 0 -14 -6 -25 -12 -26 -60
-4 -1548 3 -1565 8 -65 15 -2 23 195 23 195 1 214 2 185 15 -21 9 -39 27 -50
52 -36 79 -43 83 -167 83 -69 0 -120 -5 -136 -13z m110 -27 c30 -30 15 -81
-27 -94 -47 -15 -83 62 -47 98 21 22 50 20 74 -4z m130 0 c11 -11 20 -29 20
-40 0 -21 -36 -60 -57 -60 -21 0 -53 38 -53 64 0 51 53 73 90 36z m604 -230
c-12 -5 -25 -13 -29 -19 -4 -7 -83 -11 -234 -11 -188 0 -231 3 -241 15 -8 10
-37 15 -93 18 -45 1 76 4 268 4 206 1 341 -2 329 -7z m666 0 c-12 -8 -11 -10
6 -10 33 0 48 -24 29 -44 -25 -24 -45 -19 -51 13 -6 28 -7 28 -87 34 -45 3
-143 6 -217 7 -74 0 -136 3 -139 5 -2 3 103 5 235 5 158 0 234 -4 224 -10z
m-1212 -47 l3 -33 -100 0 -101 0 0 28 c0 16 3 32 7 36 4 4 48 5 98 4 l90 -3 3
-32z m827 -3 c0 -32 -3 -35 -27 -34 -16 0 -64 1 -108 2 l-80 2 0 28 c0 16 3
32 7 36 4 4 52 5 107 4 l101 -3 0 -35z m-947 -47 c-16 -2 -40 -2 -55 0 -16 2
-3 4 27 4 30 0 43 -2 28 -4z m820 0 c-16 -2 -40 -2 -55 0 -16 2 -3 4 27 4 30
0 43 -2 28 -4z m-98 -7 c0 -2 -9 -6 -20 -9 -11 -3 -18 -1 -14 4 5 9 34 13 34
5z"/>
<path fill="#7d322c" d="M470 1415 c0 -16 17 -19 44 -9 22 9 10 24 -20 24 -15 0 -24 -6 -24
-15z"/>
<path fill="#7d322c" d="M600 1416 c0 -11 9 -16 26 -16 31 0 28 23 -4 28 -15 2 -22 -2 -22
-12z"/>
<path fill="#7d322c" d="M1280 1457 c-14 -7 -35 -33 -47 -59 -12 -25 -31 -53 -42 -60 -19 -13
7 -16 221 -21 359 -10 557 -9 535 4 -12 7 -16 17 -12 29 6 19 5 19 -32 4 -29
-13 -45 -14 -71 -6 -25 8 -39 8 -52 -1 -30 -18 -68 6 -90 57 -10 25 -28 49
-39 55 -29 16 -339 14 -371 -2z m112 -24 c24 -22 23 -52 -4 -80 -26 -28 -42
-29 -68 -3 -54 54 15 135 72 83z m139 -4 c14 -14 18 -27 14 -42 -7 -23 -40
-57 -56 -57 -20 0 -49 42 -49 70 0 49 54 66 91 29z m123 5 c9 -8 16 -26 16
-40 0 -24 -31 -64 -50 -64 -37 0 -65 81 -38 108 17 17 54 15 72 -4z"/>
<path fill="#7d322c" d="M1332 1428 c-19 -19 -14 -28 17 -28 37 0 48 15 22 29 -24 14 -24 14
-39 -1z"/>
<path fill="#7d322c" d="M1468 1431 c-29 -10 -5 -33 25 -25 15 3 27 10 27 14 0 11 -32 18 -52
11z"/>
<path fill="#7d322c" d="M1592 1428 c-19 -19 -14 -28 16 -28 35 0 45 9 31 27 -14 16 -31 17
-47 1z"/>
<path fill="#7d322c" d="M868 1443 c61 -2 163 -2 225 0 61 1 11 3 -113 3 -124 0 -174 -2 -112
-3z"/>
<path fill="#7d322c" d="M2144 1409 c14 -17 26 -37 26 -45 0 -10 13 -14 43 -14 23 0 124 -1
225 -3 170 -2 182 -1 182 16 0 10 14 32 30 49 19 18 24 28 13 23 -28 -11 -81
-14 -288 -15 -114 -1 -201 3 -218 9 -41 16 -42 14 -13 -20z"/>
<path fill="#7d322c" d="M944 1417 c-9 -25 15 -59 39 -55 26 4 39 58 13 58 -8 0 -21 3 -30 6
-9 4 -18 0 -22 -9z"/>
<path fill="#7d322c" d="M2762 1392 c33 -40 49 -114 42 -194 l-5 -63 20 49 c11 27 35 64 53
83 l32 33 -47 0 c-36 0 -47 4 -47 16 0 13 9 15 50 12 49 -3 49 -3 35 19 -8 12
-15 30 -15 39 0 14 -7 15 -40 10 -28 -4 -50 -1 -72 10 l-32 17 26 -31z"/>
<path fill="#7d322c" d="M2010 1372 l-25 -20 27 5 c46 9 111 -37 142 -99 38 -76 32 -151 -16
-221 -44 -62 -174 -91 -218 -47 -18 18 -33 20 -137 19 -65 0 -111 -3 -103 -6
8 -4 21 -15 29 -25 7 -11 27 -28 45 -39 31 -19 28 -19 -404 -19 -376 1 -432 3
-410 15 14 7 32 25 39 39 12 21 22 26 65 29 28 2 -79 4 -239 4 -257 2 -285 0
-247 -12 24 -7 62 -26 85 -42 l40 -28 -94 -6 c-52 -3 430 -5 1071 -5 641 -1
1141 2 1111 5 -50 6 -53 7 -36 21 39 32 52 88 50 220 -3 175 -31 241 -86 202
l-23 -16 24 -6 c61 -14 87 -197 46 -319 -13 -40 -36 -57 -61 -47 -17 6 -16 9
9 35 27 28 46 77 46 118 0 20 -5 23 -40 23 -22 0 -40 5 -40 10 0 6 12 10 28
10 45 0 55 12 47 58 -6 39 -43 92 -64 92 -14 0 -39 -88 -46 -163 -3 -34 -8
-77 -11 -95 l-5 -32 -209 0 c-116 1 -210 3 -210 4 0 17 25 66 33 67 7 1 79 4
162 8 l150 6 19 40 c11 22 27 69 37 103 l18 64 -176 -4 -177 -3 -16 -62 c-16
-67 -30 -90 -30 -51 0 56 -30 127 -65 154 -47 35 -103 42 -135 16z m460 -406
c11 -19 26 -37 33 -40 7 -2 -79 -5 -190 -5 l-203 -1 38 40 37 39 132 1 131 0
22 -34z"/>
<path fill="#7d2f2c" d="M460 749 c0 -18 7 -37 16 -43 8 -6 28 -61 43 -121 l27 -110 57 -3 56
-3 15 52 c9 29 16 59 16 66 0 7 4 13 10 13 8 0 16 -22 36 -102 6 -26 10 -28
59 -28 l54 0 15 53 c8 28 23 81 32 116 10 35 24 65 31 68 7 3 13 20 13 39 l0
34 -55 0 -55 0 0 -35 c0 -19 5 -35 11 -35 6 0 8 -8 6 -17 -3 -10 -10 -39 -17
-65 -7 -27 -16 -48 -20 -48 -12 0 -40 125 -30 128 6 2 10 19 10 38 l0 34 -75
0 -75 0 0 -35 c0 -19 5 -35 11 -35 7 0 9 -10 5 -27 -19 -78 -27 -103 -35 -103
-13 0 -44 124 -32 128 6 2 11 19 11 38 l0 34 -70 0 -70 0 0 -31z"/>
<path fill="#7d2f2c" d="M1010 745 c0 -24 5 -35 15 -35 12 0 15 -16 15 -85 0 -69 -3 -85 -15
-85 -10 0 -15 -11 -15 -35 l0 -35 70 0 70 0 0 35 c0 19 -4 35 -9 35 -5 0 -11
14 -13 30 -4 29 -4 30 39 30 39 0 43 -2 43 -24 0 -14 -4 -28 -10 -31 -5 -3
-10 -22 -10 -41 l0 -34 65 0 65 0 0 34 c0 21 -6 36 -15 40 -12 4 -15 23 -15
81 0 58 3 77 15 81 9 4 15 19 15 40 l0 34 -65 0 -65 0 0 -34 c0 -19 5 -38 10
-41 6 -3 10 -17 10 -31 0 -21 -4 -24 -40 -24 -38 0 -40 2 -40 30 0 17 5 30 10
30 6 0 10 16 10 35 l0 35 -70 0 -70 0 0 -35z"/>
<path fill="#7d2f2c" d="M1410 745 c0 -24 5 -35 15 -35 12 0 15 -16 15 -85 0 -69 -3 -85 -15
-85 -10 0 -15 -11 -15 -35 l0 -35 75 0 75 0 0 34 c0 25 -5 35 -20 39 -26 7
-28 47 -2 47 12 0 30 -22 53 -60 32 -56 36 -60 72 -60 35 0 37 2 37 33 0 21
-9 40 -25 56 -30 28 -31 42 -6 65 12 11 18 30 18 62 0 37 -5 49 -29 69 -27 23
-37 25 -139 25 l-109 0 0 -35z m195 -65 c0 -18 -62 -27 -77 -12 -18 18 3 33
40 30 25 -2 37 -8 37 -18z"/>
<path fill="#7d2f2c" d="M1803 754 l-33 -25 0 -104 0 -103 34 -26 c50 -38 133 -37 182 2 l34
27 0 102 0 102 -33 25 c-48 37 -138 37 -184 0z m132 -129 l0 -70 -40 0 -40 0
-3 59 c-4 80 0 88 45 84 l38 -3 0 -70z"/>
<path fill="#7d2f2c" d="M2133 754 l-33 -25 0 -104 0 -103 34 -26 c50 -38 133 -37 182 2 l34
27 0 101 0 102 -34 26 c-49 37 -137 37 -183 0z m132 -129 l0 -70 -40 0 -40 0
-3 59 c-4 80 0 88 45 84 l38 -3 0 -70z"/>
<path fill="#7d2f2c" d="M2430 746 c0 -25 5 -35 20 -39 18 -5 20 -14 20 -82 0 -68 -2 -77 -20
-82 -15 -4 -20 -14 -20 -40 l0 -34 78 3 77 3 3 31 c3 27 -1 33 -22 38 -24 6
-26 11 -26 59 l1 52 24 -30 c14 -16 28 -38 31 -47 9 -30 38 -20 62 22 12 22
27 40 32 40 6 0 10 -20 10 -45 0 -38 -3 -45 -23 -50 -18 -5 -23 -13 -23 -38
l1 -32 78 -3 78 -3 -3 35 c-1 23 -8 36 -19 39 -13 4 -17 19 -18 82 -2 70 0 77
19 82 15 4 20 14 20 39 l0 34 -64 0 -64 0 -26 -45 c-15 -25 -30 -45 -34 -45
-5 0 -18 20 -30 45 l-22 45 -70 0 -70 0 0 -34z"/>
<path fill="#7d2f2c" d="M420 375 c0 -31 3 -35 25 -35 22 0 25 4 25 35 0 31 -3 35 -25 35 -22
0 -25 -4 -25 -35z"/>
<path fill="#7d2f2c" d="M547 403 c-4 -3 -7 -19 -7 -35 0 -24 -4 -28 -30 -28 -27 0 -30 -3
-30 -30 0 -27 3 -30 30 -30 27 0 30 3 30 30 0 27 3 30 30 30 28 0 30 3 30 35
0 30 -3 35 -23 35 -13 0 -27 -3 -30 -7z"/>
<path fill="#7d2f2c" d="M680 375 c0 -32 2 -35 30 -35 28 0 30 3 30 35 0 32 -2 35 -30 35 -28
0 -30 -3 -30 -35z"/>
<path fill="#7d2f2c" d="M817 403 c-4 -3 -7 -19 -7 -35 0 -24 -4 -28 -30 -28 -27 0 -30 -3
-30 -30 0 -27 3 -30 30 -30 27 0 30 3 30 30 0 27 3 30 30 30 28 0 30 3 30 35
0 30 -3 35 -23 35 -13 0 -27 -3 -30 -7z"/>
<path fill="#7d2f2c" d="M950 375 c0 -32 2 -35 30 -35 28 0 30 3 30 35 0 32 -2 35 -30 35 -28
0 -30 -3 -30 -35z"/>
<path fill="#7d2f2c" d="M2277 403 c-2 -5 -4 -20 -5 -35 -2 -24 2 -28 23 -28 22 0 25 4 25 35
0 28 -4 35 -19 35 -11 0 -22 -3 -24 -7z"/>
<path fill="#7d2f2c" d="M2400 375 c0 -32 2 -35 30 -35 27 0 30 -3 30 -30 0 -27 3 -30 30 -30
27 0 30 3 30 30 0 27 -3 30 -30 30 -28 0 -30 3 -30 35 0 32 -2 35 -30 35 -28
0 -30 -3 -30 -35z"/>
<path fill="#7d2f2c" d="M2530 375 c0 -32 2 -35 30 -35 28 0 30 3 30 35 0 32 -2 35 -30 35
-28 0 -30 -3 -30 -35z"/>
<path fill="#7d2f2c" d="M2670 375 c0 -32 2 -35 30 -35 27 0 30 -3 30 -30 0 -27 3 -30 30 -30
27 0 30 3 30 30 0 27 -3 30 -30 30 -28 0 -30 3 -30 35 0 32 -2 35 -30 35 -28
0 -30 -3 -30 -35z"/>
<path fill="#7d2f2c" d="M2800 375 c0 -32 2 -35 30 -35 28 0 30 3 30 35 0 32 -2 35 -30 35
-28 0 -30 -3 -30 -35z"/>
<path fill="#7d2f2c" d="M610 310 c0 -27 3 -30 30 -30 27 0 30 3 30 30 0 27 -3 30 -30 30 -27
0 -30 -3 -30 -30z"/>
<path fill="#7d2f2c" d="M880 310 c0 -27 3 -30 30 -30 27 0 30 3 30 30 0 27 -3 30 -30 30 -27
0 -30 -3 -30 -30z"/>
<path fill="#7d2f2c" d="M2330 310 c0 -27 3 -30 30 -30 27 0 30 3 30 30 0 27 -3 30 -30 30
-27 0 -30 -3 -30 -30z"/>
<path fill="#7d2f2c" d="M2600 310 c0 -27 3 -30 30 -30 27 0 30 3 30 30 0 27 -3 30 -30 30
-27 0 -30 -3 -30 -30z"/>
</g>
</svg>
